<?xml version="1.0" encoding="UTF-8" standalone="no"?><!DOCTYPE svg PUBLIC "-//W3C//DTD SVG 1.1//EN" "http://www.w3.org/Graphics/SVG/1.1/DTD/svg11.dtd"><svg width="100%" height="100%" viewBox="0 0 244 267" version="1.1" xmlns="http://www.w3.org/2000/svg" xmlns:xlink="http://www.w3.org/1999/xlink" xml:space="preserve" xmlns:serif="http://www.serif.com/" style="fill-rule:evenodd;clip-rule:evenodd;stroke-linejoin:round;stroke-miterlimit:2;"><text x="5.559px" y="126.078px" style="font-family:'TrebuchetMS', 'Trebuchet MS', sans-serif;font-size:160.687px;">MQ</text><path id="Albums" d="M185.46,168.474c4.146,0 7.5,3.019 7.5,6.747l0,69.536c0,3.728 -3.354,6.753 -7.5,6.753l-132.107,0c-4.147,0 -7.512,-3.025 -7.512,-6.753l0,-69.536c0,-3.728 3.365,-6.747 7.512,-6.747l132.107,0Zm-122.668,-8.42c-2.249,0 -4.071,-1.637 -4.071,-3.659c0,-2.016 1.822,-3.653 4.071,-3.653l113.548,0c2.249,0 4.066,1.637 4.066,3.653c0,2.022 -1.817,3.659 -4.066,3.659l-113.548,0Zm9.825,-14.158c-2.03,0 -3.682,-1.48 -3.682,-3.31l0,-0.698c0,-1.829 1.652,-3.31 3.682,-3.31l92.168,0c2.03,0 3.682,1.481 3.682,3.31l0,0.698c0,1.83 -1.652,3.31 -3.682,3.31l-92.168,0Z" style="fill:#ffc882;"/><path id="Mail" d="M53.307,168.851c-1.865,0 -3.653,0.741 -4.972,2.059c-1.318,1.319 -2.059,3.107 -2.059,4.972c0,15.532 0,52.618 0,68.15c0,1.865 0.741,3.653 2.059,4.972c1.319,1.318 3.107,2.059 4.972,2.059c24.731,0 107.551,0 132.282,0c1.864,0 3.653,-0.741 4.971,-2.059c1.319,-1.319 2.06,-3.107 2.06,-4.972c0,-15.532 0,-52.618 0,-68.15c0,-1.865 -0.741,-3.653 -2.06,-4.972c-1.318,-1.318 -3.107,-2.059 -4.971,-2.059c-24.731,0 -107.551,0 -132.282,0Zm78.58,50.276c-3.293,2.846 -7.683,4.427 -12.439,4.427c-4.756,0 -9.147,-1.581 -12.44,-4.427l-50.854,-43.952l126.222,0l-50.489,43.952Zm-40.611,-9.17l-37.683,32.569l0,-65.138l37.683,32.569Zm2.562,2.213l10.609,9.17c4.025,3.478 9.513,5.376 15.001,5.376c5.853,0 10.975,-1.898 15,-5.376l10.61,-9.17l37.683,32.569l-126.587,0l37.684,-32.569Zm53.781,-2.213l37.683,-32.569l0,65.454l-37.683,-32.885Z" style="fill-opacity:0.48;fill-rule:nonzero;"/><path d="M179.825,154.403c0,-1.024 -0.832,-1.855 -1.856,-1.855l-116.96,0c-1.024,0 -1.856,0.831 -1.856,1.855l0,3.711c0,1.024 0.832,1.855 1.856,1.855l116.96,0c1.024,0 1.856,-0.831 1.856,-1.855l0,-3.711Z" style="fill-opacity:0.48;"/><path d="M168.005,140.384c0,-1.024 -0.832,-1.855 -1.856,-1.855l-95.245,0c-1.024,0 -1.855,0.831 -1.855,1.855l0,3.711c0,1.024 0.831,1.856 1.855,1.856l95.245,0c1.024,0 1.856,-0.832 1.856,-1.856l0,-3.711Z" style="fill-opacity:0.48;"/></svg>